<?xml version="1.0" encoding="UTF-8"?>
<svg version="1.1" xmlns="http://www.w3.org/2000/svg" width="2842" height="834">
<path d="M0 0 C702.9 0 1405.8 0 2130 0 C2130 39.93 2130 79.86 2130 121 C1427.1 121 724.2 121 0 121 C0 81.07 0 41.14 0 0 Z " fill="#1C357D" transform="translate(357,562)"/>
<path d="M0 0 C41.91 0 83.82 0 127 0 C144.37829056 40.54934464 144.37829056 40.54934464 152.1875 59.375 C153.05062284 61.45323837 153.91382421 63.53144413 154.77709961 65.60961914 C156.05048729 68.67539855 157.32363384 71.74127636 158.59577942 74.80757141 C160.80830708 80.13915924 163.03217844 85.46558472 165.2734375 90.78515625 C176.08163366 116.51032732 185.92974205 142.62486755 195.94940186 168.66421509 C197.08251001 171.60775885 198.2172796 174.55066043 199.35229492 177.49346924 C200.1076273 179.45488723 200.85964043 181.417554 201.61132812 183.38037109 C202.27165039 185.09474365 202.27165039 185.09474365 202.9453125 186.84375 C203.32187988 187.82537109 203.69844727 188.80699219 204.08642578 189.81835938 C204.81229998 191.93866818 204.81229998 191.93866818 206 193 C206.54019775 191.43886475 206.54019775 191.43886475 207.09130859 189.84619141 C221.34924476 148.67557696 235.78661799 107.59212927 251.81816101 67.07383728 C256.35574385 55.59357677 260.79574017 44.07527357 265.25 32.5625 C266.83780935 28.45935143 268.42647171 24.35653447 270.015625 20.25390625 C270.3597493 19.3639798 270.7038736 18.47405334 271.0584259 17.55715942 C273.33209728 11.68739611 275.66187243 5.84531892 278 0 C320.9 0 363.8 0 408 0 C408 126.39 408 252.78 408 383 C374.67 383 341.34 383 307 383 C306.95969697 339.06073647 306.95969697 339.06073647 306.95117188 320.41796875 C306.94527552 307.62776277 306.93840665 294.83756346 306.92456055 282.04736328 C306.91447421 272.72562569 306.90811406 263.40389359 306.90591151 254.0821507 C306.90462761 249.16367489 306.90169424 244.24521477 306.89426994 239.32674408 C306.86461614 218.90600056 306.95674698 198.50928667 307.64923763 178.09853745 C307.97411116 168.39412349 308.05363309 158.70914773 308 149 C307.52916992 150.14210938 307.05833984 151.28421875 306.57324219 152.4609375 C288.91670232 195.28302358 271.1107474 238.04238722 253.19775391 280.7578125 C251.69097779 284.35104339 250.18558409 287.94484944 248.68115234 291.5390625 C246.79307776 296.04959728 244.90253073 300.55908791 243.01013184 305.06781006 C242.29990207 306.76102142 241.59049907 308.45457983 240.88195801 310.14849854 C239.91188443 312.4671587 238.93877103 314.78451896 237.96484375 317.1015625 C237.67723679 317.79092896 237.38962982 318.48029541 237.0933075 319.19055176 C235.11415206 323.88584794 235.11415206 323.88584794 234 325 C231.82194281 325.09429342 229.6407872 325.11742538 227.46069336 325.11352539 C226.77779739 325.11367142 226.09490143 325.11381744 225.39131165 325.1139679 C223.12412386 325.11326876 220.85701726 325.1054764 218.58984375 325.09765625 C217.02185613 325.09579207 215.45386793 325.09436817 213.88587952 325.09336853 C209.75123497 325.08954334 205.61662534 325.07971306 201.48199463 325.06866455 C197.26599602 325.05845044 193.04999178 325.05387091 188.83398438 325.04882812 C180.55597353 325.03809079 172.2779911 325.02101436 164 325 C163.52916992 323.85789062 163.05833984 322.71578125 162.57324219 321.5390625 C153.43903624 299.38601668 144.28366369 277.2420088 135.0625 255.125 C134.6520343 254.14045837 134.2415686 253.15591675 133.81866455 252.14154053 C130.88013944 245.09393069 127.94019664 238.04691261 125 231 C121.54069243 222.70873944 118.08205444 214.41720029 114.625 206.125 C114.2095694 205.12857483 113.79413879 204.13214966 113.36611938 203.10552979 C105.85757237 185.09216496 98.40612614 167.05570206 91 149 C90.87559641 159.22873997 91.02291067 169.43542626 91.35625553 179.65946579 C92.05115306 201.04023723 92.13406262 222.40519426 92.10139394 243.79548931 C92.09499996 248.71605464 92.09454427 253.6366211 92.09336853 258.55718994 C92.09030126 267.81018916 92.08215225 277.06317609 92.07201904 286.31616998 C92.05858401 298.86553355 92.05332067 311.41490065 92.04751682 323.96426964 C92.03820738 343.64285557 92.01825848 363.32141562 92 383 C61.64 383 31.28 383 0 383 C0 256.61 0 130.22 0 0 Z " fill="#0069A7" transform="translate(1694,153)"/>
<path d="M0 0 C41.58 0 83.16 0 126 0 C129.06919182 6.13838364 131.99642542 12.11008981 134.57421875 18.43359375 C134.89553268 19.21254501 135.21684662 19.99149628 135.54789734 20.79405212 C136.23810794 22.46830209 136.92667123 24.14323196 137.6137085 25.81878662 C139.48119023 30.37311526 141.36071396 34.92247853 143.23828125 39.47265625 C143.62769897 40.41737793 144.0171167 41.36209961 144.41833496 42.33544922 C148.31441324 51.78039055 152.26497361 61.20221292 156.22006226 70.62255859 C159.17880062 77.6738079 162.12737106 84.72931778 165.07470703 91.78533936 C165.8941581 93.74667063 166.71458487 95.7075942 167.53515625 97.66845703 C176.68152564 119.58441139 185.06621103 141.80675144 193.54006958 163.98893738 C195.39193807 168.83144348 197.25653444 173.66768052 199.16601562 178.48779297 C199.49623718 179.32398666 199.82645874 180.16018036 200.16668701 181.02171326 C200.77588313 182.56015532 201.3892456 184.09695703 202.00762939 185.63172913 C203.1735399 188.57892622 204 190.79889727 204 194 C204.66 194 205.32 194 206 194 C206.26393555 192.70787598 206.52787109 191.41575195 206.79980469 190.08447266 C207.90573904 185.12228484 209.4718001 180.42273913 211.203125 175.6484375 C211.51706207 174.76903 211.83099915 173.8896225 212.15444946 172.98356628 C213.18098936 170.11210966 214.21523796 167.24350291 215.25 164.375 C215.97712356 162.34901986 216.70384297 160.32289463 217.43017578 158.29663086 C218.54184768 155.19667567 219.65429195 152.09700922 220.76919556 148.99821472 C223.04725164 142.6663901 225.30305265 136.32724969 227.5390625 129.98046875 C235.31429759 107.95956557 243.68422083 86.20316035 252.26652527 64.48538208 C255.46888901 56.37194688 258.63047462 48.24294526 261.78125 40.109375 C262.26885517 38.85131571 262.75648021 37.59326413 263.24412537 36.33522034 C265.1574197 31.39845844 267.07013289 26.46147562 268.97879028 21.5229187 C270.29734124 18.11203104 271.61906824 14.70238966 272.94140625 11.29296875 C273.53695312 9.74805756 273.53695312 9.74805756 274.14453125 8.17193604 C274.50748291 7.23758728 274.87043457 6.30323853 275.24438477 5.34057617 C275.56093521 4.52223801 275.87748566 3.70389984 276.20362854 2.86076355 C277 1 277 1 278 0 C320.57 0 363.14 0 407 0 C407 126.39 407 252.78 407 383 C373.67 383 340.34 383 306 383 C305.95969697 342.822353 305.95969697 342.822353 305.95117188 325.75 C305.94527999 314.04621941 305.93842423 302.34244611 305.92456055 290.63867188 C305.91446054 282.10799997 305.90811097 273.57733409 305.90591151 265.04665637 C305.90462982 260.54736506 305.90171173 256.04809093 305.89426994 251.54880524 C305.86338695 232.13147511 305.99606075 212.74006648 306.64374447 193.33211136 C307.12012568 178.88795558 307.10082493 164.45053942 307 150 C306.52916992 151.14210938 306.05833984 152.28421875 305.57324219 153.4609375 C281.95538307 210.74090309 258.06276763 267.905615 234 325 C210.9 325 187.8 325 164 325 C160.52415377 317.46899983 157.08946558 310.01961434 153.9609375 302.35546875 C153.4231794 301.0485331 153.4231794 301.0485331 152.8745575 299.7151947 C152.10604906 297.84684491 151.33873543 295.97800326 150.57254028 294.10870361 C148.47757227 288.99837187 146.37284796 283.8920561 144.26953125 278.78515625 C143.83424606 277.72762146 143.39896088 276.67008667 142.95048523 275.58050537 C138.35273271 264.41549702 133.71091914 253.26898865 129.0625 242.125 C128.23444271 240.13908447 127.40639913 238.15316324 126.57836914 236.16723633 C124.05298389 230.11118302 121.52653548 224.05557351 119 218 C115.86611382 210.48843963 112.73287319 202.97661077 109.60079956 195.46429443 C108.0183565 191.66965483 106.43465694 187.87554015 104.8506012 184.08157349 C101.27780228 175.50392016 97.7295277 166.91688556 94.21557617 158.31494141 C93.60248722 156.81517509 93.60248722 156.81517509 92.97701263 155.28511047 C91.98440851 152.85684912 90.99207419 150.4284779 90 148 C90.02477858 148.77854686 90.04955715 149.55709372 90.07508659 150.3592329 C91.65749234 200.55564268 92.27575677 250.69652562 92.14405322 300.91642368 C92.11650487 311.62397498 92.10652644 322.33154623 92.09503365 333.03912449 C92.0767391 349.6927953 92.03675855 366.34633592 92 383 C61.64 383 31.28 383 0 383 C0 256.61 0 130.22 0 0 Z " fill="#1B347D" transform="translate(662,153)"/>
<path d="M0 0 C89.76 0 179.52 0 272 0 C272 27.39 272 54.78 272 83 C215.57 83 159.14 83 101 83 C101 103.13 101 123.26 101 144 C148.85 144 196.7 144 246 144 C246 171.39 246 198.78 246 227 C198.15 227 150.3 227 101 227 C101 251.09 101 275.18 101 300 C158.09 300 215.18 300 274 300 C274 327.39 274 354.78 274 383 C183.58 383 93.16 383 0 383 C0 256.61 0 130.22 0 0 Z " fill="#1B347D" transform="translate(355,153)"/>
<path d="M0 0 C40.26 0 80.52 0 122 0 C141.27682196 61.23225801 141.27682196 61.23225801 147.28326416 80.86929321 C149.33446048 87.57338076 151.39382453 94.27496066 153.453125 100.9765625 C153.78160368 102.04576526 153.78160368 102.04576526 154.11671829 103.13656807 C160.07917703 122.54102714 166.10354696 141.92628552 172.125 161.3125 C174.43894585 168.76297619 176.75272277 176.21350483 179.06640625 183.6640625 C179.35461054 184.59210693 179.64281483 185.52015137 179.93975258 186.47631836 C187.39224644 210.47498047 194.82249943 234.48051987 202.2487793 258.48730469 C203.0474513 261.06909935 203.84613012 263.65089191 204.64481926 266.23268127 C205.17815296 267.956707 205.71147436 269.68073654 206.2447834 271.4047699 C210.28561798 284.46708733 214.33328909 297.52727455 218.38410378 310.58650017 C220.19390832 316.42175315 222.00272202 322.25731336 223.81151104 328.0928812 C225.53622085 333.656786 227.26250922 339.22019774 228.9899826 344.78324509 C230.05590092 348.21725884 231.12025788 351.65175507 232.18419266 355.08638382 C232.67507206 356.66993098 233.1665922 358.25327969 233.65882492 359.83640671 C234.33605898 362.01483255 235.01093919 364.19397513 235.68530273 366.37329102 C236.06210678 367.58775406 236.43891083 368.8022171 236.82713318 370.05348206 C238.30071075 375.01184579 239.63897319 380.00956837 241 385 C206.68 385 172.36 385 137 385 C128.85071765 358.04468147 120.83018653 331.04973528 113 304 C76.7 303.67 40.4 303.34 3 303 C1.68 308.61 0.36 314.22 -1 320 C-2.40067331 325.21862445 -3.82299987 330.42616617 -5.29296875 335.625 C-5.68863952 337.03314163 -6.08408656 338.44134615 -6.47932434 339.84960938 C-7.29631004 342.75749653 -8.11580889 345.66465913 -8.93725586 348.57128906 C-9.99115457 352.30116779 -11.03865294 356.03281049 -12.08439159 359.76498413 C-12.89434559 362.65315755 -13.70747213 365.54043004 -14.52160072 368.4274292 C-14.90971393 369.80512425 -15.2968544 371.18309372 -15.68300438 372.56134033 C-16.21797946 374.46888455 -16.7576691 376.3751047 -17.29760742 378.28125 C-17.60309006 379.36470703 -17.90857269 380.44816406 -18.22331238 381.56445312 C-19 384 -19 384 -20 385 C-23.07454761 385.09532328 -26.12659158 385.1255138 -29.20141602 385.11352539 C-30.65004028 385.11374443 -30.65004028 385.11374443 -32.12792969 385.1139679 C-35.33661099 385.11326834 -38.54523503 385.10547397 -41.75390625 385.09765625 C-43.97208118 385.09579222 -46.19025652 385.09436825 -48.40843201 385.09336853 C-54.25940071 385.08954216 -60.11034477 385.07971086 -65.96130371 385.06866455 C-71.92667304 385.05845299 -77.89204633 385.05387146 -83.85742188 385.04882812 C-95.57162544 385.03808869 -107.28581067 385.02101085 -119 385 C-115.71174051 373.3683384 -112.38551039 361.76051697 -108.7421875 350.234375 C-108.15809059 348.37341508 -107.57399752 346.51245395 -106.9900465 344.65144825 C-106.37660194 342.69791288 -105.76194119 340.74476403 -105.14694214 338.79171753 C-102.91204046 331.69293695 -100.68866988 324.59053757 -98.46484375 317.48828125 C-98.12145431 316.39194209 -98.12145431 316.39194209 -97.7711277 315.27345467 C-93.14389246 300.49708345 -88.58185598 285.70107757 -84.03930664 270.89847946 C-76.3173281 245.73650832 -68.54141213 220.59160871 -60.73476028 195.45578003 C-59.29950317 190.83449935 -57.8644841 186.21314475 -56.42944336 181.59179688 C-56.1439327 180.67235291 -55.85842203 179.75290894 -55.56425953 178.80560303 C-54.98615641 176.94389972 -54.40805716 175.08219521 -53.82996178 173.2204895 C-53.25005556 171.35295369 -52.67014145 169.48542033 -52.0902195 167.6178894 C-45.82556449 147.44332151 -39.56886161 127.26629521 -33.32033157 107.08672714 C-32.7750278 105.32569099 -32.22968653 103.56466644 -31.6843071 101.80365372 C-25.82561487 82.88589726 -19.97954398 63.964429 -14.18359375 45.02734375 C-13.95606541 44.28406012 -13.72853706 43.54077648 -13.49411392 42.7749691 C-11.3611578 35.80637868 -9.230098 28.83721794 -7.10571194 21.86600971 C-6.53670556 19.99945346 -5.96685978 18.13315316 -5.39698792 16.26686096 C-4.7120076 14.02353337 -4.02843629 11.77977487 -3.34654236 9.5355072 C-3.04905594 8.56198807 -2.75156952 7.58846893 -2.44506836 6.58544922 C-2.18817734 5.74182831 -1.93128632 4.8982074 -1.66661072 4.02902222 C-1 2 -1 2 0 0 Z M58 103 C50.47551716 126.99840516 43.19948334 151.07154123 35.9309082 175.1484375 C34.24802649 180.72277612 32.56284239 186.29641589 30.87708187 191.86988449 C29.57134906 196.18791545 28.26689516 200.50633193 26.9628315 204.82486725 C26.3408484 206.88399253 25.71843833 208.94298888 25.09559441 211.00185394 C24.23550339 213.84556541 23.37715655 216.68979738 22.51928711 219.53417969 C22.13373909 220.80695267 22.13373909 220.80695267 21.74040222 222.10543823 C20.53234376 225.4967197 20.53234376 225.4967197 20 229 C45.08 229 70.16 229 96 229 C93.66462997 219.56318145 93.66462997 219.56318145 91.0456543 210.2331543 C90.69019028 209.04281586 90.33472626 207.85247742 89.9684906 206.62606812 C89.59088089 205.37145782 89.21327118 204.11684753 88.82421875 202.82421875 C88.41760805 201.46602549 88.01124764 200.10775729 87.6051178 198.74942017 C86.74598856 195.87777701 85.88522349 193.00663178 85.02307129 190.13589478 C83.67650078 185.65216994 82.33352937 181.16737241 80.99121094 176.68237305 C79.63438647 172.14948717 78.27734613 167.61666669 76.91897583 163.08424377 C73.15252739 150.51665641 69.40225248 137.94429955 65.65982056 125.36953735 C64.76136489 122.35068655 63.86255449 119.33194159 62.96362305 116.31323242 C61.6421651 111.87556275 60.32097972 107.43781205 59 103 C58.67 103 58.34 103 58 103 Z " fill="#0069A7" transform="translate(2246,151)"/>
<path d="M0 0 C33.33 0 66.66 0 101 0 C101 99 101 198 101 300 C154.79 300 208.58 300 264 300 C264 327.39 264 354.78 264 383 C176.88 383 89.76 383 0 383 C0 256.61 0 130.22 0 0 Z " fill="#0069A7" transform="translate(1259,153)"/>
<path d="M0 0 C33.33 0 66.66 0 101 0 C101 126.39 101 252.78 101 383 C67.67 383 34.34 383 0 383 C0 256.61 0 130.22 0 0 Z " fill="#0069A7" transform="translate(1549,153)"/>
<path d="M0 0 C33.33 0 66.66 0 101 0 C101 126.39 101 252.78 101 383 C67.67 383 34.34 383 0 383 C0 256.61 0 130.22 0 0 Z " fill="#1B347D" transform="translate(1114,153)"/>
<path d="M0 0 C9.25709052 9.52935789 11.71234189 20.13193438 11.52709961 33.10400391 C11.07891465 45.90089744 8.38427868 55.63709207 -0.5625 65 C-9.42342795 70.85155619 -18.36028484 72.38290845 -28.875 71.1875 C-36.80899811 69.26345141 -43.24521612 65.44495612 -47.56640625 58.44921875 C-54.54982543 45.20596358 -56.34102277 30.49050345 -52.125 16 C-48.96562664 7.16911267 -44.04014141 1.13096883 -36.140625 -3.921875 C-24.95867015 -9.16650869 -9.99912342 -6.3037952 0 0 Z " fill="#F9FAFB" transform="translate(1647.875,592.8125)"/>
<path d="M0 0 C41.36712329 0 41.36712329 0 50.5546875 8.42578125 C59.69051922 17.94795411 59.53633318 29.33870735 59.3359375 41.79296875 C58.94645809 50.91376279 56.46799269 60.36716874 49.98828125 67.0859375 C35.3303779 79.21132352 19.32812613 75 0 75 C0 50.25 0 25.5 0 0 Z " fill="#FBFCFD" transform="translate(2088,588)"/>
<path d="M0 0 C6.084375 -0.0825 12.16875 -0.165 18.4375 -0.25 C20.33943115 -0.28641602 22.2413623 -0.32283203 24.20092773 -0.36035156 C34.2741334 -0.47325386 41.96338364 -0.28648201 49.9375 6.5 C54.532709 12.06995031 54.65599986 16.94800146 54 24 C52.33175403 28.74133065 49.76841024 31.70264104 46 35 C45.01 35.33 44.02 35.66 43 36 C44.299375 36.5259375 44.299375 36.5259375 45.625 37.0625 C50.16669399 39.66976877 53.6413537 43.28270741 56 48 C56.93739328 59.98634035 56.93739328 59.98634035 54.3125 65.625 C48.34695007 71.75178101 42.16579372 75.03286492 33.48999023 75.34057617 C31.92944422 75.3398418 30.36883357 75.3238895 28.80859375 75.29296875 C27.70167175 75.28843689 27.70167175 75.28843689 26.5723877 75.28381348 C23.86061268 75.26831921 21.14903971 75.22643811 18.4375 75.1875 C12.353125 75.125625 6.26875 75.06375 0 75 C0 50.25 0 25.5 0 0 Z " fill="#F8F9FB" transform="translate(1670,588)"/>
<path d="M0 0 C5.61 0 11.22 0 17 0 C19.20632533 4.67689661 21.41202761 9.35407728 23.61621094 14.03198242 C24.36455442 15.61971463 25.11324519 17.2072832 25.86230469 18.79467773 C37 42.39916667 37 42.39916667 37 45 C37.66 45 38.32 45 39 45 C39.350625 43.845 39.70125 42.69 40.0625 41.5 C44.17741604 29.19388959 50.10441772 17.52849011 56 6 C56.99 4.02 57.98 2.04 59 0 C64.61 0 70.22 0 76 0 C76 24.75 76 49.5 76 75 C71.71 75 67.42 75 63 75 C62.67 57.18 62.34 39.36 62 21 C59.999375 25.33125 57.99875 29.6625 55.9375 34.125 C51.44348577 43.82915692 46.91148384 53.49851125 42 63 C39.03 63 36.06 63 33 63 C26.33333333 49.66666667 19.66666667 36.33333333 13 23 C12.67 40.16 12.34 57.32 12 75 C8.04 75 4.08 75 0 75 C0 50.25 0 25.5 0 0 Z " fill="#F8F9FB" transform="translate(2316,588)"/>
<path d="M0 0 C5.61 0 11.22 0 17 0 C19.20632533 4.67689661 21.41202761 9.35407728 23.61621094 14.03198242 C24.36455442 15.61971463 25.11324519 17.2072832 25.86230469 18.79467773 C37 42.39916667 37 42.39916667 37 45 C37.66 45 38.32 45 39 45 C39.350625 43.845 39.70125 42.69 40.0625 41.5 C44.17741604 29.19388959 50.10441772 17.52849011 56 6 C56.99 4.02 57.98 2.04 59 0 C64.61 0 70.22 0 76 0 C76 24.75 76 49.5 76 75 C71.71 75 67.42 75 63 75 C62.67 57.18 62.34 39.36 62 21 C59.999375 25.33125 57.99875 29.6625 55.9375 34.125 C51.44348577 43.82915692 46.91148384 53.49851125 42 63 C39.03 63 36.06 63 33 63 C26.33333333 49.66666667 19.66666667 36.33333333 13 23 C12.67 40.16 12.34 57.32 12 75 C8.04 75 4.08 75 0 75 C0 50.25 0 25.5 0 0 Z " fill="#F8F9FB" transform="translate(1508,588)"/>
<path d="M0 0 C5.61 0 11.22 0 17 0 C20.80569943 7.8803731 24.60513224 15.76367264 28.39257812 23.65283203 C29.36131998 25.67006333 30.3310613 27.68681571 31.30273438 29.70263672 C32.31194225 31.79898868 33.31395276 33.89855528 34.3125 36 C34.84488281 37.11375 35.37726563 38.2275 35.92578125 39.375 C37 42 37 42 37 45 C37.66 45 38.32 45 39 45 C39.33902344 43.85144531 39.67804688 42.70289063 40.02734375 41.51953125 C42.54538757 33.96835697 46.14971068 26.86407626 49.5625 19.6875 C50.25501216 18.22091782 50.947073 16.75412245 51.63867188 15.28710938 C54.053847 10.17150853 56.46991414 5.06017172 59 0 C64.61 0 70.22 0 76 0 C76 24.75 76 49.5 76 75 C71.71 75 67.42 75 63 75 C62.67 57.51 62.34 40.02 62 22 C55.4 35.53 48.8 49.06 42 63 C39.03 63 36.06 63 33 63 C26.33333333 49.66666667 19.66666667 36.33333333 13 23 C12.67 40.16 12.34 57.32 12 75 C8.04 75 4.08 75 0 75 C0 50.25 0 25.5 0 0 Z " fill="#F8F9FB" transform="translate(434,588)"/>
<path d="M0 0 C5.28 0 10.56 0 16 0 C21.72543983 10.53182858 27.12267199 21.16624244 32.125 32.0625 C32.8526355 33.6412793 32.8526355 33.6412793 33.5949707 35.25195312 C37 42.74289445 37 42.74289445 37 45 C37.66 45 38.32 45 39 45 C39.10344727 44.31317139 39.20689453 43.62634277 39.31347656 42.91870117 C40.12976657 39.44830749 41.46533685 36.52706683 42.984375 33.30078125 C43.43058197 32.34814644 43.43058197 32.34814644 43.88580322 31.37626648 C44.83542423 29.35256152 45.79272052 27.33259153 46.75 25.3125 C47.37807981 23.9748326 48.00568829 22.63694379 48.6328125 21.29882812 C51.99148735 14.14958271 55.43194725 7.0475851 59 0 C64.61 0 70.22 0 76 0 C76 24.75 76 49.5 76 75 C71.71 75 67.42 75 63 75 C62.67 57.18 62.34 39.36 62 21 C55.27957917 34.97542058 48.5694421 48.95298704 42 63 C39.03 63 36.06 63 33 63 C31.53569931 60.27390829 30.07873658 57.54422293 28.625 54.8125 C28.23183594 54.08224609 27.83867188 53.35199219 27.43359375 52.59960938 C22.27599092 42.87951173 17.74600801 32.96661682 13 23 C12.67 40.16 12.34 57.32 12 75 C8.04 75 4.08 75 0 75 C0 50.25 0 25.5 0 0 Z " fill="#F8F9FB" transform="translate(860,588)"/>
<path d="M0 0 C40.92307692 0 40.92307692 0 48.75 4.625 C53.64994577 9.79716498 56.30256663 14.72434891 56.5625 21.9375 C56.25468884 28.4597689 54.85777939 34.60198286 50.57421875 39.6953125 C47.54764752 42.43252162 44.93611023 43.35397176 41 44 C41.51498047 44.86802246 42.02996094 45.73604492 42.56054688 46.63037109 C44.46582553 49.8444154 46.36537178 53.06181547 48.26318359 56.28027344 C49.0861607 57.67410359 49.91070004 59.06701255 50.73681641 60.45898438 C51.92239439 62.45724547 53.10235746 64.45872689 54.28125 66.4609375 C54.65310425 67.08495453 55.0249585 67.70897156 55.40808105 68.35189819 C58 72.77225659 58 72.77225659 58 75 C53.06697898 75.94730845 48.89608809 76.25647223 44 75 C39.92956606 70.57587592 37.53349384 65.4133291 35 60 C33.82692302 57.49954272 32.6025492 55.07201964 31.3125 52.625 C30.81363281 51.56539062 30.31476563 50.50578125 29.80078125 49.4140625 C25.84277768 45.51664618 25.84277768 45.51664618 13 46 C13 55.57 13 65.14 13 75 C8.71 75 4.42 75 0 75 C0 50.25 0 25.5 0 0 Z " fill="#F9F9FB" transform="translate(1909,588)"/>
<path d="M0 0 C42.35135135 0 42.35135135 0 48.8125 5.3125 C54.40845081 12.18752528 56.42232507 16.98490208 56.34765625 25.78515625 C55.66726145 32.07689693 52.99569549 37.10165551 48.4375 41.4375 C47.2309375 42.2109375 47.2309375 42.2109375 46 43 C44.66172827 43.99338137 43.32758574 44.99238207 42 46 C42.4846875 46.80743652 42.969375 47.61487305 43.46875 48.44677734 C45.26132441 51.43770499 47.04995372 54.43091729 48.8359375 57.42578125 C49.6104035 58.72262197 50.3864399 60.01852617 51.1640625 61.31347656 C52.28016643 63.17270072 53.39061855 65.03519637 54.5 66.8984375 C55.1703125 68.01911621 55.840625 69.13979492 56.53125 70.29443359 C58 73 58 73 58 75 C53.12641091 75.80085663 48.84539609 76.0790828 44 75 C40.24949864 71.29232655 38.20353451 66.72485292 36 62 C34.68816495 59.21276107 33.3041196 56.47861907 31.875 53.75 C31.59358154 53.09443115 31.31216309 52.4388623 31.0222168 51.76342773 C29.97755947 49.53784769 29.97755947 49.53784769 27 47 C20.07 46.505 20.07 46.505 13 46 C13 55.57 13 65.14 13 75 C8.71 75 4.42 75 0 75 C0 50.25 0 25.5 0 0 Z " fill="#F8F9FB" transform="translate(586,588)"/>
<path d="M0 0 C41.45714286 0 41.45714286 0 49.3125 5.1875 C54.65083629 10.774131 56.25018292 15.2140344 56.5 23 C56.24970922 30.80072925 54.67028834 35.26902329 49.25 40.8125 C41.2579849 46.19174093 34.38646225 46.39552894 25 46.1875 C19.06 46.0946875 19.06 46.0946875 13 46 C13 55.57 13 65.14 13 75 C8.71 75 4.42 75 0 75 C0 50.25 0 25.5 0 0 Z " fill="#FAFBFC" transform="translate(521,588)"/>
<path d="M0 0 C6.084375 -0.0825 12.16875 -0.165 18.4375 -0.25 C20.33943115 -0.28641602 22.2413623 -0.32283203 24.20092773 -0.36035156 C33.84702835 -0.46985142 41.59138961 -0.46052343 49.33984375 5.9296875 C54.68093338 12.43301912 56.57480434 17.64340623 56.3671875 26.12109375 C55.60587207 32.09013065 53.35840159 36.96789215 48.76953125 40.921875 C43.4573773 44.56152371 39.506854 46.12930173 33.01953125 46.09765625 C31.97128174 46.09515869 30.92303223 46.09266113 29.84301758 46.09008789 C28.51294678 46.08098389 27.18287598 46.07187988 25.8125 46.0625 C21.584375 46.041875 17.35625 46.02125 13 46 C13 55.57 13 65.14 13 75 C8.71 75 4.42 75 0 75 C0 50.25 0 25.5 0 0 Z " fill="#F9F9FB" transform="translate(1204,588)"/>
<path d="M0 0 C12 0 12 0 14.6472168 1.99536133 C15.18000244 2.9108374 15.71278809 3.82631348 16.26171875 4.76953125 C16.8861084 5.77709473 17.51049805 6.7846582 18.15380859 7.82275391 C18.76305176 8.87124512 19.37229492 9.91973633 20 11 C21.28715687 12.92797595 22.58531658 14.84865288 23.89453125 16.76171875 C25.20292041 18.73539053 26.50890312 20.71065967 27.8125 22.6875 C34.09959164 32.20430572 40.53591509 41.59769468 47 51 C47.33 34.17 47.66 17.34 48 0 C51.96 0 55.92 0 60 0 C60 24.75 60 49.5 60 75 C47 75 47 75 43.75268555 72.1328125 C42.93841446 70.82466777 42.17234934 69.48564771 41.44921875 68.125 C40.5537622 66.64771517 39.6570681 65.17117993 38.75927734 63.6953125 C38.31066345 62.92219727 37.86204956 62.14908203 37.39984131 61.35253906 C35.07631805 57.44768272 32.47280854 53.73933417 29.89453125 50 C28.97723809 48.64697378 28.06167081 47.29277611 27.14770508 45.9375 C22.43288985 38.95759932 17.7162369 31.97894015 13 25 C12.67 41.5 12.34 58 12 75 C8.04 75 4.08 75 0 75 C0 50.25 0 25.5 0 0 Z " fill="#F9FAFB" transform="translate(1017,588)"/>
<path d="M0 0 C3.96 0 7.92 0 12 0 C14.84383984 3.06458144 16.74842219 5.48507108 18.80224609 9.00396729 C20.7237381 12.20609493 22.83022069 15.2824267 24.90869141 18.38407898 C27.97233747 22.96349084 30.9805512 27.57880058 34 32.1875 C38.29 38.725625 42.58 45.26375 47 52 C47.33 34.84 47.66 17.68 48 0 C51.96 0 55.92 0 60 0 C60 24.75 60 49.5 60 75 C55.71 75 51.42 75 47 75 C43.5831776 71.23099157 41.45958688 68.31056163 39 64 C37.70313996 62.05893529 36.39322354 60.12652942 35.0703125 58.203125 C33.75280658 56.22034381 32.43770924 54.23596011 31.125 52.25 C29.81513783 50.27601933 28.50524146 48.30206135 27.1953125 46.328125 C25.11863281 43.19570313 25.11863281 43.19570313 23 40 C19.7 35.05 16.4 30.1 13 25 C12.67 41.5 12.34 58 12 75 C8.04 75 4.08 75 0 75 C0 50.25 0 25.5 0 0 Z " fill="#F8F9FB" transform="translate(1437,588)"/>
<path d="M0 0 C5.61 0 11.22 0 17 0 C20.13398422 9.33423027 23.26416581 18.66971183 26.38763428 28.00746632 C27.83806945 32.34310266 29.29017708 36.67816387 30.74609375 41.01196289 C32.15054002 45.19275376 33.55061 49.37498641 34.94763184 53.55826378 C35.48193097 55.15560955 36.01781653 56.75242556 36.55529785 58.34870338 C37.30667158 60.58111201 38.05243035 62.81532169 38.796875 65.05004883 C39.13350159 66.04374985 39.13350159 66.04374985 39.47692871 67.05752563 C40.40007165 69.84580678 41 72.03843772 41 75 C36.38 75 31.76 75 27 75 C26.16338138 72.2092793 25.33057263 69.41751988 24.5 66.625 C24.26152344 65.8309375 24.02304688 65.036875 23.77734375 64.21875 C23.55175781 63.45820312 23.32617188 62.69765625 23.09375 61.9140625 C22.88427734 61.2123291 22.67480469 60.5105957 22.45898438 59.78759766 C22 58 22 58 22 56 C12.76 56 3.52 56 -6 56 C-6.99 59.63 -7.98 63.26 -9 67 C-9.96467347 69.67964852 -10.95089782 72.35226593 -12 75 C-15.96 75 -19.92 75 -24 75 C-23.42118659 70.16130147 -22.42989325 65.79617231 -20.8828125 61.1784668 C-20.56313507 60.21614891 -20.56313507 60.21614891 -20.23699951 59.23439026 C-19.53875345 57.13736079 -18.83202712 55.04330221 -18.125 52.94921875 C-17.63509732 51.48443952 -17.14568439 50.0194964 -16.65673828 48.55439758 C-15.63480737 45.49621849 -14.6090283 42.43936935 -13.58007812 39.38354492 C-12.26007942 35.4632795 -10.94663701 31.54085919 -9.63565063 27.61757183 C-8.38422172 23.8732429 -7.12981799 20.12991303 -5.875 16.38671875 C-5.63557678 15.67184484 -5.39615356 14.95697094 -5.1494751 14.22043419 C-4.47367671 12.20459027 -3.79579534 10.18946017 -3.1171875 8.17456055 C-2.73159668 7.02763229 -2.34600586 5.88070404 -1.94873047 4.69902039 C-1 2 -1 2 0 0 Z " fill="#F8F8FB" transform="translate(1289,588)"/>
<path d="M0 0 C5.61 0 11.22 0 17 0 C20.13398422 9.33423027 23.26416581 18.66971183 26.38763428 28.00746632 C27.83806945 32.34310266 29.29017708 36.67816387 30.74609375 41.01196289 C32.15054002 45.19275376 33.55061 49.37498641 34.94763184 53.55826378 C35.48193097 55.15560955 36.01781653 56.75242556 36.55529785 58.34870338 C37.30667158 60.58111201 38.05243035 62.81532169 38.796875 65.05004883 C39.13350159 66.04374985 39.13350159 66.04374985 39.47692871 67.05752563 C40.40007165 69.84580678 41 72.03843772 41 75 C36.38 75 31.76 75 27 75 C26.16338138 72.2092793 25.33057263 69.41751988 24.5 66.625 C24.26152344 65.8309375 24.02304687 65.036875 23.77734375 64.21875 C23.55175781 63.45820312 23.32617188 62.69765625 23.09375 61.9140625 C22.88427734 61.2123291 22.67480469 60.5105957 22.45898438 59.78759766 C22 58 22 58 22 56 C12.76 56.33 3.52 56.66 -6 57 C-7.98 62.94 -9.96 68.88 -12 75 C-15.96 75 -19.92 75 -24 75 C-23.41251713 69.96263826 -22.3083191 65.37005199 -20.6640625 60.56640625 C-20.42865753 59.86311691 -20.19325256 59.15982758 -19.95071411 58.43522644 C-19.18140448 56.14227351 -18.40338293 53.85238705 -17.625 51.5625 C-17.08844429 49.96986897 -16.55231682 48.37709362 -16.01660156 46.78417969 C-10.75354969 31.16368151 -5.39038653 15.57694376 0 0 Z " fill="#F8F8FB" transform="translate(792,588)"/>
<path d="M0 0 C5.28 0 10.56 0 16 0 C19.35668942 8.11507332 22.21741983 16.35796806 24.984375 24.6875 C25.44930847 26.08095025 25.91441991 27.47434113 26.37969971 28.86767578 C27.34638919 31.76481772 28.31093757 34.66266092 29.27392578 37.56103516 C30.50948363 41.27919178 31.75049359 44.99550243 32.9930687 48.71131897 C33.95087882 51.57753995 34.90584219 54.444703 35.85993195 57.31216431 C36.31677396 58.68402477 36.77450799 60.05558851 37.23314667 61.42684937 C37.87024318 63.33307929 38.50310016 65.24072459 39.13574219 67.1484375 C39.49674011 68.23302246 39.85773804 69.31760742 40.22967529 70.43505859 C41 73 41 73 41 75 C36.71 75 32.42 75 28 75 C25.23171434 68.4483906 23.58191715 63.11862717 22 56 C12.76 56.33 3.52 56.66 -6 57 C-7.98 62.94 -9.96 68.88 -12 75 C-16.29 75 -20.58 75 -25 75 C-22.86590563 66.86185673 -20.37688306 58.91658002 -17.65625 50.95703125 C-17.24588501 49.74859055 -16.83552002 48.54014984 -16.41271973 47.29508972 C-15.55029015 44.75746428 -14.68666945 42.22028754 -13.82080078 39.68383789 C-12.71832863 36.45415659 -11.61986901 33.22312912 -10.52283478 29.99159718 C-9.46467348 26.87538648 -8.40421275 23.75995937 -7.34375 20.64453125 C-6.95304321 19.49539749 -6.56233643 18.34626373 -6.15979004 17.16230774 C-4.19404027 11.40513706 -2.17465802 5.68168304 0 0 Z " fill="#FAFAFC" transform="translate(2020,588)"/>
<path d="M0 0 C1.48831242 0.00667405 2.97660807 0.01863442 4.46484375 0.03515625 C5.22345703 0.03966797 5.98207031 0.04417969 6.76367188 0.04882812 C8.64326246 0.06064945 10.52281274 0.07858547 12.40234375 0.09765625 C15.72879886 8.02542709 18.47222647 16.10633654 21.1328125 24.27734375 C21.57285964 25.62118424 22.01315667 26.96494293 22.45368958 28.30862427 C23.36916686 31.103209 24.28249719 33.89848232 25.1940918 36.69433594 C26.36096985 40.27295984 27.53198667 43.85021217 28.70443249 47.4270153 C29.61066063 50.19243517 30.51538228 52.95834589 31.41958046 55.72443008 C31.85105758 57.04420214 32.28284611 58.36387243 32.71495628 59.68343735 C33.31685381 61.52270296 33.91665216 63.36265513 34.51635742 65.20263672 C34.85736984 66.24725067 35.19838226 67.29186462 35.54972839 68.36813354 C36.24343527 70.58893411 36.83805428 72.84049835 37.40234375 75.09765625 C32.78234375 75.09765625 28.16234375 75.09765625 23.40234375 75.09765625 C22.56376687 72.49507301 21.73131031 69.89079978 20.90234375 67.28515625 C20.66386719 66.54716797 20.42539063 65.80917969 20.1796875 65.04882812 C19.20294239 61.96510429 18.40234375 59.35269816 18.40234375 56.09765625 C8.83234375 56.09765625 -0.73765625 56.09765625 -10.59765625 56.09765625 C-11.25765625 59.06765625 -11.91765625 62.03765625 -12.59765625 65.09765625 C-13.53025158 68.45585504 -14.56583312 71.76768161 -15.59765625 75.09765625 C-19.88765625 75.09765625 -24.17765625 75.09765625 -28.59765625 75.09765625 C-26.99723553 66.83420161 -24.33610811 58.98485511 -21.625 51.03515625 C-21.13668384 49.59320892 -20.64869803 48.15114968 -20.161026 46.70898438 C-19.14439188 43.70586041 -18.1245784 40.70384217 -17.10229492 37.70263672 C-15.79004193 33.84965383 -14.48468084 29.99437862 -13.18149471 26.13832092 C-12.1775233 23.16940193 -11.17058343 20.20149684 -10.1626606 17.23391724 C-9.67983634 15.81155833 -9.19780265 14.3889308 -8.71656609 12.96603394 C-8.04696857 10.98806222 -7.37353772 9.01143909 -6.69897461 7.03515625 C-6.31639999 5.90980469 -5.93382538 4.78445313 -5.53965759 3.625 C-4.23134363 0.11485732 -4.23134363 0.11485732 0 0 Z " fill="#FAFAFC" transform="translate(2427.59765625,587.90234375)"/>
<path d="M0 0 C5.28 0 10.56 0 16 0 C19.68539438 8.83269103 22.69419154 17.8547909 25.6875 26.9375 C26.21489378 28.53117843 26.74256608 30.12476472 27.27050781 31.71826172 C28.07079729 34.13406059 28.87081744 36.54994539 29.66958618 38.96624756 C31.36057304 44.07999018 33.06644535 49.18848215 34.78515625 54.29296875 C35.20385986 55.53892822 35.62256348 56.7848877 36.05395508 58.06860352 C36.83688267 60.39661051 37.6217992 62.72394979 38.40893555 65.05053711 C38.75351807 66.07800049 39.09810059 67.10546387 39.453125 68.1640625 C39.75379883 69.05561035 40.05447266 69.9471582 40.36425781 70.86572266 C41 73 41 73 41 75 C36.71 75 32.42 75 28 75 C25.23171434 68.4483906 23.58191715 63.11862717 22 56 C12.76 56.33 3.52 56.66 -6 57 C-7.98 62.94 -9.96 68.88 -12 75 C-16.29 75 -20.58 75 -25 75 C-22.74277996 66.34363944 -20.03421417 57.89830029 -17.1484375 49.43359375 C-16.68405183 48.06413397 -16.21991456 46.69458993 -15.75601196 45.32496643 C-14.7914979 42.4795482 -13.82484399 39.63486993 -12.85644531 36.79077148 C-11.6146446 33.14352678 -10.3770541 29.49487078 -9.14087486 25.84571743 C-8.18641631 23.0289737 -7.23042017 20.21275391 -6.27388382 17.39671516 C-5.8166403 16.0503859 -5.35972653 14.7039446 -4.90314865 13.35738945 C-4.2681219 11.48572505 -3.63094037 9.61479215 -2.99365234 7.74389648 C-2.63185883 6.68009262 -2.27006531 5.61628876 -1.89730835 4.52024841 C-1 2 -1 2 0 0 Z " fill="#FAFAFC" transform="translate(1861,588)"/>
<path d="M0 0 C4.29 0 8.58 0 13 0 C13.01458252 1.56886963 13.02916504 3.13773926 13.04418945 4.75415039 C13.10227673 10.58950287 13.17950995 16.4244737 13.26245117 22.25952148 C13.29565129 24.78224481 13.32369842 27.30504154 13.34643555 29.82788086 C13.38007096 33.45979006 13.43239367 37.09102957 13.48828125 40.72265625 C13.49467117 41.84583755 13.5010611 42.96901886 13.50764465 44.12623596 C13.64426022 51.44609892 14.03766544 57.03766544 19.4375 62.4375 C25.68192815 65.17628427 32.11069647 64.91241164 38.5625 62.875 C41.7632108 60.41291477 42.56353479 58.82260906 44 55 C44.46931567 50.79681523 44.48867792 46.60914387 44.51171875 42.3828125 C44.52966995 41.17051971 44.54762115 39.95822693 44.56611633 38.709198 C44.62017724 34.84783374 44.6541027 30.98659284 44.6875 27.125 C44.72067666 24.50258702 44.75516664 21.88019031 44.79101562 19.2578125 C44.87590186 12.8386307 44.94273402 6.41948522 45 0 C49.29 0 53.58 0 58 0 C58.09074989 7.27639615 58.16397248 14.55247759 58.20724869 21.82932186 C58.22803026 25.2091028 58.25617154 28.58847297 58.30175781 31.96801758 C58.35050659 35.8629015 58.37302285 39.75720944 58.390625 43.65234375 C58.41127014 44.8526976 58.43191528 46.05305145 58.45318604 47.28977966 C58.45535031 55.45979577 57.28917096 61.76285837 52.2109375 68.3046875 C44.31778507 75.05585192 36.44135824 76.57076098 26.17578125 76.28125 C18.03392042 75.56019959 10.68919898 73.09650884 5 67 C1.50648484 61.1673486 -0.12933908 55.35712735 -0.11352539 48.58886719 C-0.11344986 47.50804871 -0.11337433 46.42723022 -0.11329651 45.31365967 C-0.10813522 44.15312073 -0.10297394 42.99258179 -0.09765625 41.796875 C-0.0962413 40.60394836 -0.09482635 39.41102173 -0.09336853 38.1819458 C-0.08777038 34.37127171 -0.07521819 30.56065634 -0.0625 26.75 C-0.05748476 24.16666752 -0.0529219 21.58333411 -0.04882812 19 C-0.03780155 12.66664404 -0.02053814 6.33333197 0 0 Z " fill="#F8F9FB" transform="translate(947,588)"/>
<path d="M0 0 C16.17 0 32.34 0 49 0 C49 3.63 49 7.26 49 11 C37.12 11 25.24 11 13 11 C13 17.6 13 24.2 13 31 C23.23 31 33.46 31 44 31 C44 34.3 44 37.6 44 41 C33.77 41 23.54 41 13 41 C13 48.59 13 56.18 13 64 C25.21 64 37.42 64 50 64 C50 67.63 50 71.26 50 75 C33.5 75 17 75 0 75 C0 50.25 0 25.5 0 0 Z " fill="#F9FAFC" transform="translate(2158,588)"/>
<path d="M0 0 C16.17 0 32.34 0 49 0 C49 3.63 49 7.26 49 11 C37.12 11 25.24 11 13 11 C13 17.6 13 24.2 13 31 C23.23 31 33.46 31 44 31 C44 34.3 44 37.6 44 41 C33.77 41 23.54 41 13 41 C13 48.59 13 56.18 13 64 C25.21 64 37.42 64 50 64 C50 67.63 50 71.26 50 75 C33.5 75 17 75 0 75 C0 50.25 0 25.5 0 0 Z " fill="#F9F9FB" transform="translate(652,588)"/>
<path d="M0 0 C16.17 0 32.34 0 49 0 C49 3.3 49 6.6 49 10 C37.12 10.33 25.24 10.66 13 11 C12.67 17.6 12.34 24.2 12 31 C22.56 31 33.12 31 44 31 C44 34.3 44 37.6 44 41 C33.44 41 22.88 41 12 41 C12 48.59 12 56.18 12 64 C24.21 64 36.42 64 49 64 C49 67.63 49 71.26 49 75 C32.83 75 16.66 75 0 75 C0 50.25 0 25.5 0 0 Z " fill="#FDFDFD" transform="translate(376,588)"/>
<path d="M0 0 C0.91676514 0.00580078 1.83353027 0.01160156 2.77807617 0.01757812 C10.11325764 0.15689046 16.78556442 1.18478631 23.8125 3.375 C25.03669163 7.31295909 24.29570272 9.53612237 22.8125 13.375 C18.67138297 13.55504857 15.10999172 13.29312112 11.0625 12.375 C2.86173244 10.6399822 -4.7378942 10.16435324 -12.1875 14.375 C-13.73336876 17.46673752 -13.48109521 19.96929552 -13.1875 23.375 C-9.58894189 29.09997881 -1.29221945 30.64638562 4.77734375 32.75 C20.84785846 38.4020529 20.84785846 38.4020529 25.75 46.625 C27.52333356 52.88382432 27.90954117 58.6511744 25.1875 64.6875 C20.99588923 71.95686694 14.64940801 74.75250152 6.92944336 76.8984375 C-4.43159914 79.45601505 -17.09809864 77.12281627 -28.1875 74.375 C-27.8575 70.745 -27.5275 67.115 -27.1875 63.375 C-25.434375 63.705 -23.68125 64.035 -21.875 64.375 C-15.98366913 65.27488461 -10.20789641 65.62748826 -4.25 65.6875 C-3.4458667 65.70490234 -2.6417334 65.72230469 -1.81323242 65.74023438 C3.14097856 65.73610027 6.50747294 65.08730033 10.8125 62.375 C12.90927338 59.82240632 12.8159994 58.27876645 12.9375 54.9375 C11.66602967 50.91117729 10.30677646 49.63935099 6.65234375 47.6171875 C2.9619489 46.00295701 -0.81089965 44.72610332 -4.625 43.4375 C-13.46821755 40.44237054 -21.62980041 37.22640722 -26.37890625 28.6484375 C-28.34329927 23.12536148 -28.04861205 16.99171945 -26.0625 11.5 C-20.1895652 1.71177533 -10.66556153 -0.16356133 0 0 Z " fill="#F8F9FB" transform="translate(736.1875,586.625)"/>
<path d="M0 0 C5.59639638 2.83469643 7.54043409 7.43581474 9.8203125 12.99609375 C10.98431842 17.26411544 11.07686952 21.19367881 11.046875 25.59765625 C11.03950317 26.86355591 11.03950317 26.86355591 11.03198242 28.1550293 C10.88885667 35.76858548 10.10080022 42.53652708 5.421875 48.78515625 C0.97145649 53.02857855 -2.53920177 54.5274158 -8.640625 54.84765625 C-14.29113752 54.67083749 -18.12979963 53.21949277 -22.265625 49.34765625 C-29.37134004 40.60868731 -28.9343171 28.99365912 -28.265625 18.34765625 C-27.1954342 11.41389904 -24.64116889 5.97404121 -19.265625 1.34765625 C-13.88742795 -2.1364801 -5.98335496 -1.72279358 0 0 Z " fill="#1C357E" transform="translate(1635.265625,598.65234375)"/>
<path d="M0 0 C0.754021 0.00604248 1.50804199 0.01208496 2.28491211 0.01831055 C10.78453264 0.16967994 17.82520873 2.10508349 25.6875 5.25 C25.3575 8.22 25.0275 11.19 24.6875 14.25 C20.6875 15.25 20.6875 15.25 17 13.8125 C9.38141342 11.09157622 -0.28438001 10.69846583 -8.046875 13.09375 C-13.02835226 15.865399 -15.45323639 19.96632997 -17.3125 25.25 C-18.46552535 29.32680595 -18.4963386 33.28938812 -18.5 37.5 C-18.51224609 38.22574219 -18.52449219 38.95148437 -18.53710938 39.69921875 C-18.56065052 48.50360798 -16.55694877 55.08284498 -10.875 62 C-5.25231838 66.4981453 1.90621315 65.77978803 8.6875 65.25 C11.89480095 64.57438799 14.99491451 63.76537549 18.12890625 62.80859375 C20.6875 62.25 20.6875 62.25 24.6875 63.25 C25.1825 67.705 25.1825 67.705 25.6875 72.25 C23.81449975 72.90161012 21.9389945 73.54602195 20.0625 74.1875 C18.49628906 74.72697266 18.49628906 74.72697266 16.8984375 75.27734375 C6.34768813 78.47337367 -5.08984483 78.56995628 -15.3125 74.25 C-24.02824901 69.55690438 -28.41114984 62.50456308 -31.3125 53.25 C-34.42208704 41.22080803 -33.4480651 24.85378636 -27.3671875 13.95703125 C-21.11604084 3.83943462 -11.69657702 -0.14947287 0 0 Z " fill="#F9F9FB" transform="translate(1144.3125,586.75)"/>
<path d="M0 0 C21.97777778 0 21.97777778 0 27 4 C33.83016552 11.12205293 34.21813524 17.1692415 34.3125 26.6875 C34.34150391 27.64333984 34.37050781 28.59917969 34.40039062 29.58398438 C34.47192682 37.65656883 32.777271 43.73670658 27.5 49.9375 C18.63509168 57.25104937 14.41635562 54 0 54 C0 36.18 0 18.36 0 0 Z " fill="#1F377F" transform="translate(2100,598)"/>
<path d="M0 0 C4.29 0 8.58 0 13 0 C13 21.12 13 42.24 13 64 C24.55 64 36.1 64 48 64 C48 67.63 48 71.26 48 75 C32.16 75 16.32 75 0 75 C0 50.25 0 25.5 0 0 Z " fill="#F9FAFC" transform="translate(2236,588)"/>
<path d="M0 0 C4.29 0 8.58 0 13 0 C13 21.12 13 42.24 13 64 C24.55 64 36.1 64 48 64 C48 67.63 48 71.26 48 75 C32.16 75 16.32 75 0 75 C0 50.25 0 25.5 0 0 Z " fill="#F6F7FA" transform="translate(1761,588)"/>
<path d="M0 0 C4.29 0 8.58 0 13 0 C13 21.12 13 42.24 13 64 C24.55 64 36.1 64 48 64 C48 67.63 48 71.26 48 75 C32.16 75 16.32 75 0 75 C0 50.25 0 25.5 0 0 Z " fill="#F6F7FA" transform="translate(1337,588)"/>
<path d="M0 0 C4.29 0 8.58 0 13 0 C13 24.75 13 49.5 13 75 C8.71 75 4.42 75 0 75 C0 50.25 0 25.5 0 0 Z " fill="#F9FAFC" transform="translate(1975,588)"/>
<path d="M0 0 C4.29 0 8.58 0 13 0 C13 24.75 13 49.5 13 75 C8.71 75 4.42 75 0 75 C0 50.25 0 25.5 0 0 Z " fill="#F9FAFC" transform="translate(1816,588)"/>
<path d="M0 0 C4.29 0 8.58 0 13 0 C13 24.75 13 49.5 13 75 C8.71 75 4.42 75 0 75 C0 50.25 0 25.5 0 0 Z " fill="#F9FAFC" transform="translate(1736,588)"/>
<path d="M0 0 C4.29 0 8.58 0 13 0 C13 24.75 13 49.5 13 75 C8.71 75 4.42 75 0 75 C0 50.25 0 25.5 0 0 Z " fill="#F9FAFC" transform="translate(1179,588)"/>
<path d="M0 0 C3.96 0 7.92 0 12 0 C12 24.75 12 49.5 12 75 C8.04 75 4.08 75 0 75 C0 50.25 0 25.5 0 0 Z " fill="#FEFEFE" transform="translate(2292,588)"/>
<path d="M0 0 C3.96 0 7.92 0 12 0 C12 24.75 12 49.5 12 75 C8.04 75 4.08 75 0 75 C0 50.25 0 25.5 0 0 Z " fill="#FEFEFE" transform="translate(1413,588)"/>
<path d="M0 0 C3.96 0 7.92 0 12 0 C12 24.75 12 49.5 12 75 C8.04 75 4.08 75 0 75 C0 50.25 0 25.5 0 0 Z " fill="#FEFEFE" transform="translate(1089,588)"/>
<path d="M0 0 C2.805 -0.061875 5.61 -0.12375 8.5 -0.1875 C9.8003418 -0.22846802 9.8003418 -0.22846802 11.12695312 -0.27026367 C17.72530253 -0.33980657 23.26515747 0.74375492 28.5 5.0625 C30.70756348 9.38564515 30.6271629 13.2414015 30 18 C28.63437096 21.77556265 27.55645261 22.69687976 24.03125 24.6171875 C19.28451075 26.56666427 14.61500215 26.32825094 9.5625 26.1875 C4.8290625 26.0946875 4.8290625 26.0946875 0 26 C0 17.42 0 8.84 0 0 Z " fill="#233B82" transform="translate(534,598)"/>
<path d="M0 0 C5.506875 -0.1546875 5.506875 -0.1546875 11.125 -0.3125 C12.2711377 -0.35802002 13.41727539 -0.40354004 14.59814453 -0.45043945 C23.04279813 -0.56519671 23.04279813 -0.56519671 26.6796875 2.39453125 C30.2842409 6.44206849 30.3899809 9.16204951 30.359375 14.44921875 C29.78039966 18.55868504 28.00085071 20.21349577 25 23 C22.44276771 24.27861615 20.63262898 24.11336609 17.7734375 24.09765625 C16.84450684 24.09515869 15.91557617 24.09266113 14.95849609 24.09008789 C13.77594238 24.08098389 12.59338867 24.07187988 11.375 24.0625 C5.744375 24.0315625 5.744375 24.0315625 0 24 C0 16.08 0 8.16 0 0 Z " fill="#1B347D" transform="translate(1922,599)"/>
<path d="M0 0 C5.506875 -0.1546875 5.506875 -0.1546875 11.125 -0.3125 C12.2711377 -0.35802002 13.41727539 -0.40354004 14.59814453 -0.45043945 C23.04279813 -0.56519671 23.04279813 -0.56519671 26.6796875 2.39453125 C30.16794088 6.31147571 30.28401865 8.66329793 30.21875 13.74609375 C29.83250024 17.72584578 28.11241474 19.98560416 25.22949219 22.61450195 C22.46729445 24.33104512 20.81082096 24.34684702 17.578125 24.29296875 C16.65418945 24.28547607 15.73025391 24.2779834 14.77832031 24.27026367 C13.61397461 24.24295166 12.44962891 24.21563965 11.25 24.1875 C7.5375 24.125625 3.825 24.06375 0 24 C0 16.08 0 8.16 0 0 Z " fill="#1C347D" transform="translate(599,599)"/>
<path d="M0 0 C3.50625 -0.0825 7.0125 -0.165 10.625 -0.25 C11.71893066 -0.28641602 12.81286133 -0.32283203 13.93994141 -0.36035156 C19.77121867 -0.42667686 23.51640072 -0.14986859 28 4 C30.71036834 7.97520689 30.81221933 12.35185371 30 17 C28.28631391 20.07061968 26.19098548 22.40450726 23 24 C21.2595583 24.08449628 19.51590278 24.10723024 17.7734375 24.09765625 C16.84450684 24.09515869 15.91557617 24.09266113 14.95849609 24.09008789 C13.77594238 24.08098389 12.59338867 24.07187988 11.375 24.0625 C5.744375 24.0315625 5.744375 24.0315625 0 24 C0 16.08 0 8.16 0 0 Z " fill="#1C357D" transform="translate(1217,599)"/>
<path d="M0 0 C3.70911942 -0.1082077 7.41506456 -0.18742278 11.125 -0.25 C12.17171875 -0.28351562 13.2184375 -0.31703125 14.296875 -0.3515625 C20.51622775 -0.43028848 24.31369769 -0.26027483 29 4 C30.85726616 7.71453232 30.58501089 11.95579425 30 16 C27.80977082 18.82424288 26.16982793 20.41508603 23 22 C21.2595583 22.08449628 19.51590278 22.10723024 17.7734375 22.09765625 C16.7421875 22.09443359 15.7109375 22.09121094 14.6484375 22.08789062 C13.02808594 22.07532227 13.02808594 22.07532227 11.375 22.0625 C9.74304687 22.05573242 9.74304687 22.05573242 8.078125 22.04882812 C5.38539338 22.0370179 2.69268991 22.01908205 0 22 C0 14.74 0 7.48 0 0 Z " fill="#1C357D" transform="translate(1683,630)"/>
<path d="M0 0 C3.54295358 -0.13534203 7.08070854 -0.23428424 10.625 -0.3125 C11.62402344 -0.35439453 12.62304688 -0.39628906 13.65234375 -0.43945312 C22.00225838 -0.57769674 22.00225838 -0.57769674 25.671875 2.203125 C28.81638882 5.98076241 28.7527143 7.96923142 28.46484375 12.6875 C28 15 28 15 26.1875 17.5625 C22.77197403 19.80698849 20.09910482 20.12181276 16.11328125 20.09765625 C15.17548828 20.09443359 14.23769531 20.09121094 13.27148438 20.08789062 C12.29501953 20.07951172 11.31855469 20.07113281 10.3125 20.0625 C9.32443359 20.05798828 8.33636719 20.05347656 7.31835938 20.04882812 C4.87888042 20.0370432 2.43943259 20.01910783 0 20 C0 13.4 0 6.8 0 0 Z " fill="#1B347D" transform="translate(1683,599)"/>
<path d="M0 0 C0.66 0 1.32 0 2 0 C3.42976783 4.35813007 4.85377068 8.71808526 6.27246094 13.07983398 C6.75590503 14.56342333 7.24092125 16.04650134 7.72753906 17.52905273 C8.42666824 19.65996993 9.12012543 21.79266126 9.8125 23.92578125 C10.03123779 24.58838455 10.24997559 25.25098785 10.4753418 25.93367004 C11.38547586 28.75405555 12 31.01399134 12 34 C4.41 34 -3.18 34 -11 34 C-7.625 21.625 -7.625 21.625 -5.95703125 16.89453125 C-5.60576172 15.89228516 -5.25449219 14.89003906 -4.89257812 13.85742188 C-4.53615234 12.85259766 -4.17972656 11.84777344 -3.8125 10.8125 C-3.44447266 9.76513672 -3.07644531 8.71777344 -2.69726562 7.63867188 C-1.80158738 5.09122337 -0.90246184 2.54505148 0 0 Z " fill="#2A4185" transform="translate(1868,601)"/>
<path d="M0 0 C0.66 0 1.32 0 2 0 C3.42778133 4.51953547 4.85185014 9.04021722 6.27246094 13.56201172 C6.75646219 15.1007459 7.2414841 16.63915941 7.72753906 18.17724609 C8.42520154 20.38556141 9.11920929 22.59499638 9.8125 24.8046875 C10.14060669 25.83914505 10.14060669 25.83914505 10.4753418 26.89450073 C12 31.77225659 12 31.77225659 12 34 C4.41 34 -3.18 34 -11 34 C-7.625 21.625 -7.625 21.625 -5.95703125 16.89453125 C-5.60576172 15.89228516 -5.25449219 14.89003906 -4.89257812 13.85742188 C-4.53615234 12.85259766 -4.17972656 11.84777344 -3.8125 10.8125 C-3.44447266 9.76513672 -3.07644531 8.71777344 -2.69726562 7.63867188 C-1.80158738 5.09122337 -0.90246184 2.54505148 0 0 Z " fill="#2A4185" transform="translate(2027,601)"/>
<path d="M0 0 C2.60805886 2.60805886 3.30089553 5.47234645 4.3828125 8.90625 C4.60194305 9.58675415 4.82107361 10.2672583 5.04684448 10.96838379 C5.50857953 12.40654181 5.9673388 13.84565814 6.42333984 15.28564453 C7.1229394 17.49349698 7.83215384 19.69807966 8.54296875 21.90234375 C8.99015313 23.2992969 9.4367865 24.69642657 9.8828125 26.09375 C10.09527618 26.75524048 10.30773987 27.41673096 10.52664185 28.0982666 C12 32.76761498 12 32.76761498 12 35 C4.41 35 -3.18 35 -11 35 C-9.77446656 29.4850995 -8.67396244 24.65883607 -6.8359375 19.43359375 C-6.43632812 18.28955078 -6.03671875 17.14550781 -5.625 15.96679688 C-5.2125 14.80212891 -4.8 13.63746094 -4.375 12.4375 C-3.95476563 11.23802734 -3.53453125 10.03855469 -3.1015625 8.80273438 C-2.07225134 5.86685823 -1.03830116 2.93270619 0 0 Z " fill="#294185" transform="translate(2431,600)"/>
<path d="M0 0 C0.66 0 1.32 0 2 0 C3.42992047 4.21560331 4.85391801 8.43314642 6.27246094 12.65258789 C6.75586246 14.08770643 7.24087817 15.52228229 7.72753906 16.95629883 C8.42678121 19.01763614 9.12019477 21.08085542 9.8125 23.14453125 C10.23144531 24.38565674 10.65039062 25.62678223 11.08203125 26.90551758 C12 30 12 30 12 33 C4.74 33 -2.52 33 -10 33 C-7.75 22.875 -7.75 22.875 -6.0546875 17.87109375 C-5.70019531 16.81728516 -5.34570312 15.76347656 -4.98046875 14.67773438 C-4.43326172 13.07381836 -4.43326172 13.07381836 -3.875 11.4375 C-3.50246094 10.33341797 -3.12992188 9.22933594 -2.74609375 8.09179688 C-1.83484757 5.39310627 -0.91940476 2.69591967 0 0 Z " fill="#223A81" transform="translate(1296,601)"/>
<path d="M0 0 C0.66 0 1.32 0 2 0 C3.42992047 4.21560331 4.85391801 8.43314642 6.27246094 12.65258789 C6.75586246 14.08770643 7.24087817 15.52228229 7.72753906 16.95629883 C8.42678121 19.01763614 9.12019477 21.08085542 9.8125 23.14453125 C10.23144531 24.38565674 10.65039062 25.62678223 11.08203125 26.90551758 C12 30 12 30 12 33 C4.74 33 -2.52 33 -10 33 C-7.75 22.875 -7.75 22.875 -6.0546875 17.87109375 C-5.70019531 16.81728516 -5.34570312 15.76347656 -4.98046875 14.67773438 C-4.43326172 13.07381836 -4.43326172 13.07381836 -3.875 11.4375 C-3.50246094 10.33341797 -3.12992188 9.22933594 -2.74609375 8.09179688 C-1.83484757 5.39310627 -0.91940476 2.69591967 0 0 Z " fill="#223A81" transform="translate(799,601)"/>
</svg>
