<?xml version="1.0" standalone="no"?>
<!DOCTYPE svg PUBLIC "-//W3C//DTD SVG 20010904//EN"
 "http://www.w3.org/TR/2001/REC-SVG-20010904/DTD/svg10.dtd">
<svg version="1.0" xmlns="http://www.w3.org/2000/svg"
 width="32.000000pt" height="32.000000pt" viewBox="0 0 32.000000 32.000000"
 preserveAspectRatio="xMidYMid meet">

<g transform="translate(0.000000,32.000000) scale(0.100000,-0.100000)"
fill="#000000" stroke="none">
<path d="M73 224 c-40 -40 -73 -76 -73 -79 0 -20 40 4 90 55 58 59 84 72 93
48 2 -7 8 -10 12 -6 6 6 -38 60 -47 57 -2 0 -36 -34 -75 -75z"/>
<path d="M220 271 c0 -16 -6 -31 -12 -34 -8 -2 4 -20 31 -46 24 -23 41 -44 38
-48 -3 -3 -28 18 -56 46 -27 28 -55 51 -61 51 -5 0 -40 -29 -75 -65 -59 -58
-65 -69 -65 -106 0 -62 13 -69 130 -69 122 0 130 5 130 83 0 35 5 57 13 60 8
3 5 11 -10 24 -19 17 -23 31 -23 77 0 49 -2 56 -20 56 -15 0 -20 -7 -20 -29z
m-40 -181 c0 -49 -1 -50 -30 -50 -29 0 -30 1 -30 50 0 49 1 50 30 50 29 0 30
-1 30 -50z"/>
</g>
</svg>
